<svg width="178" height="46" viewBox="0 0 178 46" fill="none" xmlns="http://www.w3.org/2000/svg">
<path d="M0 6V3.5C0 1.84315 1.34315 0.5 3 0.5H29.5C31.1569 0.5 32.5 1.84315 32.5 3.5V6C32.5 7.65685 31.1569 9 29.5 9H20C19.4477 9 19 9.44772 19 10V41.5C19 43.1569 17.6569 44.5 16 44.5H13C11.3431 44.5 10 43.1569 10 41.5V10C10 9.44771 9.55228 9 9 9H3C1.34315 9 0 7.65685 0 6Z" fill="#1B8986"/>
<path d="M35.6062 15.8034L26.0587 29.7269C25.1773 31.0122 25.427 32.7584 26.6332 33.7453L27.699 34.6173C28.9731 35.6598 30.8494 35.4807 31.9033 34.216L34.1159 31.5609C34.4153 31.2017 35 31.4134 35 31.881V38.5C35 41.8137 37.6863 44.5 41 44.5H43.4123C45.35 44.5 47.1684 43.5642 48.2947 41.9874L59.6863 26.0392C60.2517 25.2476 61.5 25.6476 61.5 26.6205V41C61.5 42.6569 62.8431 44 64.5 44H68.4159C69.4071 44 70.3344 43.5104 70.8933 42.6919L82.1742 26.1735C82.7289 25.3612 84 25.7538 84 26.7375V41C84 42.6569 85.3431 44 87 44H90.4473C91.4211 44 92.3343 43.5274 92.8966 42.7324L104.684 26.068C105.247 25.2719 106.5 25.6703 106.5 26.6455V41C106.5 42.6569 107.843 44 109.5 44H112.359C113.382 44 114.334 43.4794 114.885 42.6187L128.805 20.8984C129.728 19.4575 129.261 17.5373 127.779 16.6816L126.393 15.8819C125.041 15.101 123.316 15.4883 122.427 16.7723L115.911 26.184C115.632 26.587 115 26.3896 115 25.8994V20.5C115 17.1863 112.314 14.5 109 14.5H104.746C102.721 14.5 100.832 15.5215 99.7238 17.2165L93.9185 26.0953C93.6465 26.5112 93 26.3186 93 25.8216V20.5C93 17.1863 90.3137 14.5 87 14.5H82.9544C81.0916 14.5 79.3344 15.3652 78.1987 16.8417L70.8963 26.3348C70.6052 26.7132 70 26.5074 70 26.0299V20.5C70 17.1863 67.3137 14.5 64 14.5H60.0972C58.1542 14.5 56.3315 15.4409 55.2061 17.0248L44.4076 32.2226C44.1255 32.6197 43.5 32.4201 43.5 31.933V17.5C43.5 15.8431 42.1569 14.5 40.5 14.5H38.0804C37.0912 14.5 36.1656 14.9876 35.6062 15.8034Z" fill="#1B8986"/>
<path d="M155 0C167.703 0 178 10.2975 178 23C178 35.7025 167.703 46 155 46C142.297 46 132 35.7025 132 23C132 10.2975 142.297 0 155 0ZM155 9C147.268 9 141 15.268 141 23C141 30.732 147.268 37 155 37C162.732 37 169 30.732 169 23C169 15.268 162.732 9 155 9Z" fill="#1B8986"/>
<path d="M44 5C44 7.20914 42.2091 9 40 9C37.7909 9 36 7.20914 36 5C36 2.79086 37.7909 1 40 1C42.2091 1 44 2.79086 44 5Z" fill="#44D8BB"/>
</svg>
