<svg width="104" height="44" viewBox="0 0 104 44" fill="none" xmlns="http://www.w3.org/2000/svg">
<path d="M10.0735 14.8034L0.525953 28.7269C-0.355435 30.0122 -0.105803 31.7584 1.10043 32.7453L2.16619 33.6173C3.44037 34.6598 5.31663 34.4807 6.37057 33.216L8.58313 30.5609C8.88251 30.2017 9.46724 30.4134 9.46724 30.881V37.5C9.46724 40.8137 12.1535 43.5 15.4672 43.5H17.8795C19.8172 43.5 21.6357 42.5642 22.7619 40.9874L34.1535 25.0392C34.719 24.2476 35.9672 24.6476 35.9672 25.6205V40C35.9672 41.6569 37.3104 43 38.9672 43H42.8832C43.8744 43 44.8016 42.5104 45.3606 41.6919L56.6414 25.1735C57.1962 24.3612 58.4672 24.7538 58.4672 25.7375V40C58.4672 41.6569 59.8104 43 61.4672 43H64.9146C65.8884 43 66.8015 42.5274 67.3638 41.7324L79.1508 25.068C79.714 24.2719 80.9672 24.6703 80.9672 25.6455V40C80.9672 41.6569 82.3104 43 83.9672 43H86.8266C87.8489 43 88.8009 42.4794 89.3525 41.6187L103.272 19.8984C104.195 18.4575 103.728 16.5373 102.246 15.6816L100.861 14.8819C99.5083 14.101 97.783 14.4883 96.8941 15.7723L90.3783 25.184C90.0993 25.587 89.4672 25.3896 89.4672 24.8994V19.5C89.4672 16.1863 86.7809 13.5 83.4672 13.5H79.2129C77.1878 13.5 75.2993 14.5215 74.1911 16.2165L68.3857 25.0953C68.1137 25.5112 67.4672 25.3186 67.4672 24.8216V19.5C67.4672 16.1863 64.7809 13.5 61.4672 13.5H57.4216C55.5588 13.5 53.8017 14.3652 52.6659 15.8417L45.3635 25.3348C45.0725 25.7132 44.4672 25.5074 44.4672 25.0299V19.5C44.4672 16.1863 41.7809 13.5 38.4672 13.5H34.5644C32.6214 13.5 30.7987 14.4409 29.6733 16.0248L18.8748 31.2226C18.5927 31.6197 17.9672 31.4201 17.9672 30.933V16.5C17.9672 14.8431 16.6241 13.5 14.9672 13.5H12.5477C11.5585 13.5 10.6329 13.9876 10.0735 14.8034Z" fill="#1B8986"/>
<path d="M18.4672 4C18.4672 6.20914 16.6764 8 14.4672 8C12.2581 8 10.4672 6.20914 10.4672 4C10.4672 1.79086 12.2581 0 14.4672 0C16.6764 0 18.4672 1.79086 18.4672 4Z" fill="#44D8BB"/>
</svg>
